<svg width="28" height="28" viewBox="0 0 28 28" fill="none" xmlns="http://www.w3.org/2000/svg">
<path d="M8.17062 27.4436H18.942C20.7359 27.4436 21.901 26.3453 21.9851 24.5493L22.779 7.66631H24.0755C24.653 7.66631 25.103 7.20764 25.103 6.63015C25.103 6.05687 24.653 5.60781 24.0755 5.60781H3.0371C2.46922 5.60781 2 6.05687 2 6.63015C2 7.21725 2.46922 7.66631 3.0371 7.66631H4.33367L5.1275 24.5589C5.21375 26.3549 6.3575 27.4436 8.17062 27.4436ZM8.40218 25.3703C7.75319 25.3703 7.28936 24.8917 7.25631 24.2003L6.4592 7.66631H20.6033L19.8467 24.2003C19.8233 24.9034 19.3594 25.3703 18.6912 25.3703H8.40218ZM10.1007 23.4761C10.5945 23.4761 10.9128 23.1632 10.9011 22.7024L10.542 10.4165C10.5282 9.95991 10.2057 9.65663 9.73319 9.65663C9.24359 9.65663 8.92742 9.96952 8.93913 10.4282L9.28859 22.7087C9.30242 23.1749 9.62702 23.4761 10.1007 23.4761ZM13.5526 23.4761C14.038 23.4761 14.3797 23.1674 14.3797 22.7109V10.424C14.3797 9.96741 14.038 9.65663 13.5526 9.65663C13.0651 9.65663 12.733 9.96741 12.733 10.424V22.7109C12.733 23.1674 13.0651 23.4761 13.5526 23.4761ZM17.0119 23.4761C17.4781 23.4761 17.8006 23.1749 17.8144 22.7087L18.1639 10.4282C18.1756 9.96952 17.8594 9.65663 17.3698 9.65663C16.8973 9.65663 16.5748 9.95991 16.561 10.4261L16.2116 22.7024C16.1998 23.1632 16.5181 23.4761 17.0119 23.4761ZM8.22875 6.39133H10.3916V3.95734C10.3916 3.35054 10.816 2.96124 11.4685 2.96124H15.6153C16.2678 2.96124 16.6923 3.35054 16.6923 3.95734V6.39133H18.8551V3.84859C18.8551 2.05656 17.7113 1 15.7695 1H11.3143C9.3725 1 8.22875 2.05656 8.22875 3.84859V6.39133Z" fill="#0584FF"/>
</svg>
