<svg width="22" height="24" viewBox="0 0 22 24" fill="none" xmlns="http://www.w3.org/2000/svg">
<path d="M1.07835 23.22C1.67389 23.22 2.16092 22.7468 2.16092 22.147V15.7327C2.47498 15.6122 3.4753 15.2536 4.99125 15.2536C9.2555 15.2536 12.1029 17.3852 16.2342 17.3852C18.0391 17.3852 18.8496 17.1607 19.755 16.7475C20.591 16.3652 21.0888 15.6926 21.0888 14.6018V2.90975C21.0888 2.15038 20.4991 1.67953 19.7119 1.67953C19.0554 1.67953 18.0026 2.13164 16.1072 2.13164C12.0265 2.13164 9.1381 0 4.86421 0C3.0846 0 2.28773 0.21609 1.34437 0.64195C0.51258 1.02 0 1.62726 0 2.69156V22.147C0 22.7351 0.49453 23.22 1.07835 23.22ZM2.20733 10.1536V6.38554C2.41357 6.04101 3.29342 5.57788 4.89796 5.57788C5.26031 5.57788 5.84976 5.60765 6.30632 5.66929V2.26381C7.8187 2.43631 9.1795 2.87647 10.5755 3.2878V6.69116C11.9695 7.12593 13.3669 7.4946 14.835 7.63733V4.23186C15.2372 4.27756 15.6436 4.29772 16.0671 4.29772C17.2116 4.29772 18.1713 4.17069 18.8911 3.97123V7.37249C18.3326 7.52811 17.3152 7.70319 16.0671 7.70319C15.7102 7.70319 15.2845 7.68397 14.835 7.63733V11.4033C15.2972 11.4595 15.7244 11.4691 16.143 11.4691C17.2854 11.4691 18.1903 11.3379 18.8911 11.1405V14.4052C18.6933 14.7497 17.8029 15.2044 16.1941 15.2044C15.7343 15.2044 15.282 15.1725 14.835 15.1109V11.4033C13.3036 11.2191 12.0164 10.9261 10.5755 10.4571V14.0656C9.2477 13.6681 7.8795 13.2823 6.30632 13.1353V9.43729C5.86522 9.38409 5.49726 9.34589 4.89796 9.34589C3.29342 9.34589 2.41357 9.80909 2.20733 10.1536ZM6.30632 9.43729C7.8708 9.62369 9.0675 10.017 10.5755 10.4571V6.69116C9.157 6.27233 7.8804 5.85022 6.30632 5.66929V9.43729Z" fill="white"/>
</svg>
