<svg width="29" height="23" viewBox="0 0 29 23" fill="none" xmlns="http://www.w3.org/2000/svg">
<path d="M5.1246 6.7125C5.37725 5.54273 5.90507 3.98507 6.25804 3.356C6.59554 2.74194 6.97968 2.48108 7.69686 2.3864C8.53686 2.27554 10.5396 2.20194 14.1248 2.20194C17.7197 2.20194 19.7245 2.25421 20.557 2.3864C21.27 2.49069 21.6445 2.74194 21.9937 3.356C22.3542 3.97546 22.8574 5.54273 23.1368 6.7125C23.257 7.2115 23.04 7.4367 22.5209 7.4154C20.7084 7.3055 18.4261 7.1904 14.1248 7.1904C9.83741 7.1904 7.55507 7.3055 5.74053 7.4154C5.21178 7.4367 5.00225 7.2115 5.1246 6.7125ZM5.55328 15.6553C4.44468 15.6553 3.59273 14.8055 3.59273 13.6969C3.59273 12.5787 4.44468 11.7363 5.55328 11.7363C6.66187 11.7363 7.51171 12.5787 7.51171 13.6969C7.51171 14.8055 6.66187 15.6553 5.55328 15.6553ZM10.9678 15.1612C10.1297 15.1612 9.55148 14.583 9.55148 13.7449C9.55148 12.9143 10.1297 12.3361 10.9678 12.3361H17.2915C18.1221 12.3361 18.7003 12.9143 18.7003 13.7449C18.7003 14.583 18.1221 15.1612 17.2915 15.1612H10.9678ZM22.6985 15.6553C21.5899 15.6553 20.7476 14.8055 20.7476 13.6969C20.7476 12.5787 21.5899 11.7363 22.6985 11.7363C23.8167 11.7363 24.659 12.5787 24.659 13.6969C24.659 14.8055 23.8167 15.6553 22.6985 15.6553ZM14.1248 18.9164C18.1277 18.9164 23.3787 18.7172 25.5998 18.4594C27.2948 18.2667 28.2518 17.3076 28.2518 15.7043V13.7156C28.2518 11.655 27.8702 10.5155 26.7773 9.0923L25.739 7.7897C25.3129 5.68031 24.5299 3.46757 24.1272 2.59828C23.4733 1.21922 22.2178 0.39398 20.6001 0.17672C19.7601 0.0628099 17.2423 0 14.1248 0C11.0191 0 8.50124 0.0724199 7.66124 0.17672C6.04148 0.37476 4.77843 1.21922 4.13414 2.59828C3.72187 3.46757 2.94844 5.68031 2.51062 7.7897L1.48195 9.0923C0.381563 10.5155 0 11.655 0 13.7156V15.7043C0 17.3076 0.966559 18.2688 2.65195 18.4594C4.88273 18.7151 10.1241 18.9164 14.1248 18.9164ZM1.58812 22.2276H2.99086C3.88453 22.2276 4.57898 21.5353 4.57898 20.6491V17.6721L0 15.4022V20.6491C0 21.5353 0.694453 22.2276 1.58812 22.2276ZM25.2609 22.2276H26.6733C27.5669 22.2276 28.2518 21.5353 28.2518 20.6491V15.4022L23.6824 17.6721V20.6491C23.6824 21.5353 24.3672 22.2276 25.2609 22.2276Z" fill="#0584FF"/>
</svg>
