<svg width="43" height="25" viewBox="0 0 43 25" fill="none" xmlns="http://www.w3.org/2000/svg">
<path d="M21.909 9.9656L23.1732 12.1495L23.5812 11.4346C24.0898 11.635 24.8525 11.9027 25.7016 12.3806C28.4405 13.9739 29.5939 16.5775 32.4666 18.2451C33.3652 18.7764 34.3109 19.1503 35.0403 19.2302C35.922 19.3164 36.6835 19.0418 37.2109 18.1277L41.9209 9.9745C42.3411 9.235 42.0261 8.5268 41.3272 8.1161C40.7968 7.81473 39.728 7.5452 38.528 6.85356C35.7795 5.26989 34.6358 2.65661 31.7609 0.989029C30.8644 0.467309 29.9091 0.0955896 29.1873 0.0135597C28.3077 -0.0684703 27.5483 0.21161 27.0188 1.12989L21.909 9.9656ZM20.2011 17.2956L18.9294 15.1021L14.5679 22.6638C14.2648 23.1848 14.4584 23.8622 14.9698 24.1694C15.5026 24.4767 16.1628 24.296 16.4583 23.7611L20.2011 17.2956Z" fill="#0584FF"/>
<path d="M27.5442 22.6638L15.0933 1.12989C14.5638 0.21161 13.8044 -0.0684703 12.9248 0.0135597C12.1933 0.0955896 11.2476 0.467309 10.3512 0.989029C7.47631 2.65661 6.32295 5.26989 3.57443 6.85356C2.37443 7.5452 1.31529 7.81473 0.784898 8.1161C0.0763858 8.5268 -0.229003 9.235 0.191229 9.9745L4.89162 18.1277C5.41896 19.0418 6.19006 19.3164 7.06216 19.2302C7.79154 19.1503 8.74685 18.7764 9.63372 18.2451C12.5182 16.5775 13.6619 13.9739 16.4104 12.3806C17.25 11.9027 18.0223 11.635 18.5308 11.4346L25.6441 23.7611C25.9493 24.296 26.6074 24.4767 27.1422 24.1694C27.6537 23.8622 27.8376 23.1848 27.5442 22.6638Z" fill="#0584FF"/>
</svg>
