<svg width="30" height="25" viewBox="0 0 30 25" fill="none" xmlns="http://www.w3.org/2000/svg">
<path d="M0.269502 12.1233C-0.246589 12.8416 -0.0124494 13.5087 0.894579 13.5087H2.55184C3.23528 19.4524 8.39668 24.21 14.5823 24.21C18.0384 24.21 21.1715 22.6887 23.3388 20.3325C23.8926 19.7695 23.8615 19.027 23.3939 18.6061C22.9179 18.1725 22.233 18.1884 21.6745 18.7233C19.9319 20.6311 17.4033 21.8255 14.5823 21.8255C9.6248 21.8255 5.61651 18.188 4.97034 13.5087H6.73331C7.6244 13.5087 7.86487 12.8437 7.35628 12.1329L4.56254 8.1984C4.14324 7.60454 3.49426 7.59915 3.06746 8.1984L0.269502 12.1233ZM5.83542 3.87751C5.27199 4.44048 5.30527 5.17336 5.78035 5.59219C6.25847 6.02789 6.93159 6.02155 7.49971 5.48672C9.2519 3.59061 11.7806 2.38452 14.5823 2.38452C19.5302 2.38452 23.5406 6.02202 24.1964 10.7109H22.4229C21.5297 10.7109 21.2892 11.3662 21.7978 12.0867L24.5936 16.0212C25.0129 16.6151 25.6619 16.6205 26.0887 16.0212L28.8771 12.0963C29.4007 11.3684 29.159 10.7109 28.252 10.7109H26.6149C25.9197 4.76719 20.77 0 14.5823 0C11.1262 0 8.0048 1.51172 5.83542 3.87751Z" fill="#0584FF"/>
</svg>
