<svg width="19" height="10" viewBox="0 0 19 10" fill="none" xmlns="http://www.w3.org/2000/svg">
<path d="M9.4146 0C9.0396 0 8.7239 0.16242 8.3498 0.46851L0.44718 6.85757C0.16781 7.0945 0 7.4313 0 7.8504C0 8.6369 0.61945 9.2079 1.35327 9.2079C1.68913 9.2079 2.01115 9.0762 2.35146 8.8188L9.4146 3.10943L16.4798 8.8188C16.8084 9.0762 17.1401 9.2079 17.4684 9.2079C18.2097 9.2079 18.8292 8.6369 18.8292 7.8504C18.8292 7.4313 18.6635 7.0945 18.382 6.85757L10.4793 0.4589C10.1053 0.16242 9.7821 0 9.4146 0Z" fill="white"/>
</svg>
