<svg width="19" height="10" viewBox="0 0 19 10" fill="none" xmlns="http://www.w3.org/2000/svg">
<path d="M9.4146 9.2153C9.7821 9.2153 10.1053 9.0529 10.4793 8.7585L18.382 2.3599C18.6635 2.1208 18.8292 1.784 18.8292 1.3671C18.8292 0.580501 18.2097 0 17.4684 0C17.1401 0 16.8084 0.139201 16.4798 0.398601L9.4146 6.108L2.35146 0.398601C2.01115 0.139201 1.68913 0 1.35327 0C0.61945 0 0 0.580501 0 1.3671C0 1.784 0.16781 2.1208 0.44718 2.3599L8.3498 8.7489C8.7239 9.0529 9.0396 9.2153 9.4146 9.2153Z" fill="white"/>
</svg>
