<svg width="24" height="27" viewBox="0 0 24 27" fill="none" xmlns="http://www.w3.org/2000/svg">
<path d="M0 4.04437C0 8.8125 2.35828 11.895 7.02304 13.3341C7.76859 14.2711 8.6205 15.0302 9.4596 15.5616V20.4314H7.61554C5.93789 20.4314 5.02547 21.4228 5.02547 23.0236V25.0162C5.02547 25.6322 5.50734 26.0735 6.09444 26.0735H17.3674C17.9545 26.0735 18.4364 25.6322 18.4364 25.0162V23.0236C18.4364 21.4228 17.5144 20.4314 15.8367 20.4314H14.0044V15.5616C14.8434 15.0302 15.6933 14.2711 16.4292 13.3341C21.1057 11.895 23.4619 8.8125 23.4619 4.04437C23.4619 2.74242 22.6275 1.93453 21.2723 1.93453H19.0453C18.803 0.72656 17.9065 0 16.4505 0H7.01132C5.5671 0 4.6589 0.71695 4.41867 1.93453H2.19163C0.83437 1.93453 0 2.74242 0 4.04437ZM1.95632 4.31389C1.95632 4.13272 2.09061 3.98882 2.2835 3.98882H4.32211V6.15492C4.32211 7.77914 4.72758 9.2977 5.36555 10.6294C3.13359 9.4273 1.95632 7.31203 1.95632 4.31389ZM18.0888 10.6294C18.7343 9.2977 19.1397 7.77914 19.1397 6.15492V3.98882H21.1805C21.3712 3.98882 21.5055 4.13272 21.5055 4.31389C21.5055 7.31203 20.3283 9.4252 18.0888 10.6294Z" fill="#0584FF"/>
</svg>
